<?xml version="1.0" encoding="UTF-8"?>
<svg xmlns="http://www.w3.org/2000/svg" xmlns:xlink="http://www.w3.org/1999/xlink" width="447px" height="447px" viewBox="0 0 447 447" version="1.1">
<g id="surface1">
<path style=" stroke:none;fill-rule:nonzero;fill:rgb(100%,0%,0%);fill-opacity:1;" d="M 211.226562 0.410156 C 229.894531 -0.632812 248.640625 0.742188 266.972656 4.3125 C 296.539062 10.152344 324.910156 22.125 349.714844 39.234375 C 380.171875 60.097656 405.3125 88.65625 422.160156 121.53125 C 428.925781 134.65625 434.320312 148.527344 438.371094 162.734375 C 443.355469 180.472656 446.070312 198.808594 446.628906 217.214844 C 447.148438 235.921875 445.289062 254.699219 441.199219 272.996094 C 434.765625 301.410156 422.640625 328.519531 405.796875 352.28125 C 389.542969 375.265625 368.941406 395.121094 345.363281 410.519531 C 319.40625 427.511719 289.84375 439.042969 259.199219 443.875 C 223.613281 449.640625 186.574219 446.703125 152.398438 435.210938 C 124.765625 425.953125 98.996094 411.1875 77.015625 392.035156 C 49.164062 367.863281 27.371094 336.738281 14.429688 302.226562 C 1.898438 269.351562 -2.417969 233.464844 1.449219 198.585938 C 5.390625 161.917969 18.816406 126.328125 39.902344 96.09375 C 55.261719 73.929688 74.710938 54.59375 96.910156 39.34375 C 118.890625 24.136719 143.65625 13.015625 169.578125 6.582031 C 183.226562 3.234375 197.207031 1.152344 211.226562 0.410156 Z M 209.589844 6.992188 C 194.195312 7.996094 178.835938 10.488281 164 14.800781 C 124.765625 25.84375 88.917969 48.417969 61.769531 78.839844 C 43.808594 98.882812 29.601562 122.273438 20.191406 147.488281 C 15.804688 159.5 12.273438 171.847656 10.039062 184.453125 C 5.464844 209.851562 5.429688 236.03125 9.890625 261.46875 C 12.605469 276.902344 17.105469 292 23.054688 306.464844 C 32.910156 330.082031 46.929688 351.984375 64.371094 370.765625 C 77.6875 385.15625 92.96875 397.726562 109.667969 408.027344 C 135.476562 423.980469 164.707031 434.394531 194.828125 438.335938 C 213.347656 440.714844 232.164062 440.828125 250.683594 438.484375 C 267.046875 436.511719 283.074219 432.460938 298.546875 426.808594 C 324.054688 417.398438 347.707031 403.117188 367.9375 385.007812 C 388.988281 366.191406 406.351562 343.246094 418.625 317.808594 C 424.949219 304.980469 429.746094 291.441406 433.390625 277.609375 C 438 259.980469 440.15625 241.722656 440.230469 223.5 C 440.195312 205.722656 438.148438 187.949219 433.796875 170.730469 C 430.191406 156.671875 425.394531 142.914062 419.070312 129.859375 C 402.671875 95.425781 376.902344 65.523438 345.328125 44.066406 C 321.417969 27.742188 294.195312 16.363281 265.855469 10.710938 C 247.375 7.066406 228.410156 5.875 209.589844 6.992188 Z M 209.589844 6.992188 "/>
<path style=" stroke:none;fill-rule:nonzero;fill:rgb(100%,0%,0%);fill-opacity:1;" d="M 210.296875 12.570312 C 233.28125 11.195312 256.449219 13.5 278.6875 19.488281 C 306.578125 27.035156 332.832031 40.421875 355.367188 58.496094 C 383.296875 80.882812 405.5 110.449219 418.996094 143.621094 C 438.707031 191.445312 439.75 246.632812 422.046875 295.234375 C 412.488281 321.714844 397.503906 346.183594 378.386719 366.859375 C 359.71875 387.054688 337.070312 403.527344 312.15625 415.128906 C 298.507812 421.378906 284.300781 426.324219 269.648438 429.558594 C 234.730469 437.332031 197.839844 436.140625 163.515625 426.027344 C 131.460938 416.542969 101.746094 399.289062 77.574219 376.195312 C 61.433594 360.761719 47.75 342.800781 37.1875 323.164062 C 30.382812 310.558594 24.953125 297.207031 20.824219 283.484375 C 10.265625 247.710938 9.371094 209.144531 18.222656 172.886719 C 24.839844 145.851562 36.964844 120.15625 53.550781 97.804688 C 69.949219 75.640625 90.703125 56.75 114.277344 42.507812 C 136.257812 29.230469 160.6875 19.933594 186.015625 15.46875 C 194.046875 14.019531 202.152344 13.128906 210.296875 12.570312 Z M 205.015625 40.164062 C 205.015625 49.460938 205.015625 58.757812 205.015625 68.054688 C 205.09375 69.652344 203.753906 70.769531 202.933594 72.03125 C 156.226562 136.109375 109.554688 200.257812 62.847656 264.371094 C 62.253906 265.113281 61.769531 266.042969 60.949219 266.5625 C 53.664062 266.785156 46.335938 266.453125 39.046875 266.710938 C 38.9375 267.492188 39.53125 268.125 39.828125 268.796875 C 42.207031 273.21875 44.589844 277.683594 46.929688 282.144531 C 47.230469 282.667969 47.601562 283.335938 48.308594 283.222656 C 55.371094 283.222656 62.476562 283.222656 69.542969 283.222656 C 70.398438 283.335938 70.84375 282.480469 71.328125 281.921875 C 121.714844 212.753906 172.105469 143.582031 222.496094 74.414062 C 222.90625 73.632812 223.796875 73.519531 224.207031 74.375 C 274.113281 142.875 323.980469 211.375 373.925781 279.878906 C 374.816406 280.957031 375.449219 282.332031 376.566406 283.148438 C 378.722656 283.371094 380.878906 283.1875 383.035156 283.261719 C 388.242188 283.222656 393.410156 283.296875 398.617188 283.222656 C 399.363281 283.261719 399.585938 282.441406 399.921875 281.960938 C 402.558594 276.902344 405.3125 271.917969 407.914062 266.859375 C 406.464844 266.527344 404.976562 266.675781 403.527344 266.675781 C 397.800781 266.675781 392.074219 266.675781 386.382812 266.675781 C 385.566406 266.785156 385.117188 265.96875 384.671875 265.449219 C 337.222656 200.257812 289.804688 135.140625 242.355469 70.023438 C 241.945312 69.46875 241.683594 68.796875 241.722656 68.089844 C 241.722656 57.789062 241.722656 47.488281 241.722656 37.1875 C 241.683594 36.667969 241.609375 36.109375 241.535156 35.589844 C 236.070312 40.980469 230.714844 46.558594 225.359375 52.027344 C 224.652344 52.582031 224.132812 53.738281 223.164062 53.664062 C 220.859375 51.617188 218.8125 49.238281 216.582031 47.078125 C 212.753906 43.285156 209.109375 39.269531 205.167969 35.589844 C 204.980469 37.113281 205.015625 38.636719 205.015625 40.164062 Z M 220.226562 90.03125 C 177.089844 149.273438 133.914062 208.476562 90.777344 267.753906 C 87.058594 272.886719 83.226562 277.941406 79.65625 283.148438 C 81.515625 283.371094 83.375 283.296875 85.199219 283.261719 C 86.054688 283.261719 86.386719 282.292969 86.910156 281.773438 C 132.128906 219.632812 177.386719 157.527344 222.644531 95.425781 C 222.941406 94.71875 223.761719 94.71875 224.132812 95.386719 C 269.464844 157.640625 314.832031 219.894531 360.164062 282.144531 C 360.574219 282.703125 361.019531 283.410156 361.839844 283.296875 C 363.550781 283.1875 365.410156 283.597656 367.046875 283.039062 C 361.875 275.601562 356.371094 268.421875 351.128906 261.058594 C 308.550781 202.675781 266.082031 144.253906 223.460938 85.90625 C 222.199219 87.09375 221.269531 88.617188 220.226562 90.03125 Z M 210.074219 169.132812 C 210.820312 170.246094 211.859375 171.140625 212.789062 172.070312 C 216.023438 175.304688 219.296875 178.503906 222.53125 181.699219 C 222.832031 181.921875 223.351562 182.628906 223.722656 182.109375 C 228 178.019531 232.128906 173.855469 236.328125 169.6875 C 236.886719 169.316406 236.21875 168.796875 235.808594 168.832031 C 227.367188 166.972656 218.441406 166.9375 210.074219 169.132812 Z M 243.542969 171.324219 C 243.46875 172.21875 243.433594 173.109375 243.433594 174.003906 C 243.46875 183.1875 243.359375 192.375 243.320312 201.558594 C 243.320312 201.96875 243.359375 202.339844 243.507812 202.710938 C 244.734375 202.972656 246 202.824219 247.226562 202.859375 C 253.546875 202.898438 259.871094 202.898438 266.230469 202.898438 C 269.203125 202.859375 272.179688 203.046875 275.117188 202.859375 C 274.78125 201.597656 274.261719 200.445312 273.703125 199.289062 C 273.445312 198.84375 273.21875 198.210938 272.589844 198.324219 C 264.777344 198.210938 256.933594 198.210938 249.085938 198.175781 C 248.414062 198.285156 247.859375 197.804688 248.007812 197.097656 C 247.96875 190.402344 248.007812 183.671875 248.082031 176.976562 C 248.042969 175.75 248.191406 174.523438 247.96875 173.296875 C 246.707031 172.328125 245.105469 171.808594 243.542969 171.324219 Z M 198.210938 173.707031 C 197.988281 174.933594 198.136719 176.160156 198.101562 177.386719 C 198.101562 184.191406 198.136719 191.035156 198.101562 197.839844 C 198.210938 198.433594 197.65625 198.84375 197.097656 198.808594 C 189.175781 198.917969 181.253906 198.734375 173.371094 198.882812 C 172.253906 200.109375 171.769531 201.855469 171.324219 203.417969 C 176.34375 203.53125 181.328125 203.417969 186.347656 203.457031 C 191.816406 203.382812 197.28125 203.605469 202.75 203.34375 C 202.859375 201.632812 202.824219 199.921875 202.824219 198.175781 C 202.785156 189.324219 202.898438 180.472656 202.75 171.621094 C 201.113281 172.105469 199.550781 172.738281 198.210938 173.707031 Z M 253.585938 176.496094 C 253.4375 181.773438 253.472656 187.054688 253.472656 192.300781 C 253.363281 193.003906 254.253906 192.929688 254.699219 192.96875 C 259.757812 192.96875 264.851562 193.003906 269.910156 192.96875 C 269.6875 192.449219 269.5 191.925781 269.203125 191.480469 C 266.117188 187.09375 262.511719 183.039062 258.308594 179.691406 C 256.785156 178.578125 255.332031 177.3125 253.585938 176.496094 Z M 178.984375 189.398438 C 178.054688 190.664062 176.976562 191.890625 176.382812 193.378906 C 181.664062 193.488281 186.945312 193.453125 192.226562 193.378906 C 193.003906 193.414062 192.820312 192.375 192.894531 191.890625 C 192.78125 186.871094 193.042969 181.8125 192.746094 176.828125 C 187.425781 180.101562 182.816406 184.453125 178.984375 189.398438 Z M 209.816406 178.429688 C 209.628906 180.324219 209.703125 182.183594 209.703125 184.082031 C 209.703125 192.152344 209.703125 200.21875 209.703125 208.289062 C 209.703125 208.8125 209.703125 209.628906 208.960938 209.628906 C 198.769531 209.816406 188.582031 209.480469 178.429688 209.816406 C 182.519531 214.316406 186.980469 218.441406 191.144531 222.867188 C 191.703125 223.3125 191.144531 223.910156 190.8125 224.28125 C 186.683594 228.484375 182.480469 232.574219 178.429688 236.851562 C 179.058594 237 179.691406 237.109375 180.363281 237.074219 C 189.660156 237.074219 198.957031 237.074219 208.289062 237.074219 C 208.921875 237.035156 209.816406 237.183594 209.703125 238.003906 C 209.816406 248.117188 209.589844 258.234375 209.816406 268.3125 C 211.117188 267.34375 212.195312 266.117188 213.347656 265 C 216.507812 261.953125 219.558594 258.792969 222.71875 255.777344 C 223.054688 255.296875 223.648438 255.296875 224.019531 255.742188 C 228.410156 259.90625 232.5 264.332031 237 268.386719 C 237.257812 258.308594 237 248.191406 237.109375 238.113281 C 237 237.519531 237.519531 237.074219 238.078125 237.148438 C 248.15625 237.035156 258.269531 237.257812 268.347656 237.035156 C 264.332031 232.535156 259.871094 228.445312 255.703125 224.058594 C 255.257812 223.6875 255.296875 223.089844 255.777344 222.757812 C 259.90625 218.40625 264.371094 214.351562 268.347656 209.851562 C 258.234375 209.628906 248.117188 209.851562 238.039062 209.742188 C 237.222656 209.851562 237.035156 208.960938 237.109375 208.363281 C 237.148438 199.664062 237.109375 190.996094 237.109375 182.332031 C 237.074219 181.070312 237.257812 179.765625 236.886719 178.539062 C 233.132812 182.109375 229.488281 185.792969 225.804688 189.4375 C 225.0625 190.140625 224.429688 190.960938 223.574219 191.480469 C 222.980469 191.59375 222.644531 190.960938 222.273438 190.664062 C 218.070312 186.496094 214.089844 182.296875 209.816406 178.429688 Z M 275.152344 212.304688 C 271.507812 215.949219 267.941406 219.59375 264.332031 223.277344 C 265.300781 224.617188 266.5625 225.695312 267.714844 226.882812 C 270.65625 229.894531 273.628906 232.871094 276.566406 235.847656 C 276.863281 236.144531 277.199219 236.515625 277.683594 236.515625 C 278.167969 234.992188 278.390625 233.429688 278.648438 231.867188 C 279.691406 224.617188 279.542969 217.105469 277.609375 210.039062 C 276.679688 210.707031 275.898438 211.488281 275.152344 212.304688 Z M 169.132812 210.039062 C 168.238281 212.976562 167.941406 216.023438 167.644531 219.039062 C 167.234375 224.949219 167.570312 231.011719 169.167969 236.738281 C 170.730469 235.472656 171.996094 233.949219 173.445312 232.574219 C 176.34375 229.597656 179.320312 226.734375 182.148438 223.722656 C 182.667969 223.351562 181.921875 222.867188 181.738281 222.53125 C 178.316406 219.113281 174.96875 215.652344 171.546875 212.230469 C 170.804688 211.449219 170.023438 210.671875 169.132812 210.039062 Z M 244.214844 243.394531 C 243.917969 243.917969 243.992188 244.511719 243.992188 245.070312 C 244.027344 253.621094 243.992188 262.136719 243.992188 270.691406 C 243.992188 272.140625 243.878906 273.628906 244.175781 275.078125 C 245.664062 274.523438 247.261719 274 248.566406 273.035156 C 248.789062 272.03125 248.675781 270.988281 248.714844 269.949219 C 248.714844 262.882812 248.675781 255.816406 248.714844 248.75 C 248.640625 247.859375 249.71875 247.894531 250.3125 247.894531 C 257.75 247.894531 265.1875 247.894531 272.625 247.894531 C 273.035156 247.859375 273.667969 247.933594 273.851562 247.449219 C 274.558594 246.148438 275.078125 244.773438 275.5625 243.394531 C 274.929688 243.320312 274.335938 243.246094 273.742188 243.246094 C 264.296875 243.246094 254.886719 243.246094 245.441406 243.246094 C 244.996094 243.246094 244.585938 243.320312 244.214844 243.394531 Z M 171.695312 244.027344 C 172.070312 245.589844 172.699219 247.152344 173.632812 248.453125 C 174.710938 248.824219 175.898438 248.566406 177.015625 248.640625 C 183.96875 248.640625 190.886719 248.640625 197.839844 248.640625 C 198.769531 248.492188 198.84375 249.570312 198.808594 250.199219 C 198.808594 257.414062 198.808594 264.59375 198.808594 271.808594 C 198.84375 272.402344 198.695312 273.035156 198.992188 273.59375 C 200.367188 274.410156 201.855469 275.117188 203.417969 275.378906 C 203.492188 265.261719 203.457031 255.109375 203.457031 244.996094 C 203.605469 244.25 203.007812 243.765625 202.304688 243.917969 C 192.113281 244.027344 181.886719 243.878906 171.695312 244.027344 Z M 254.402344 253.363281 C 254.292969 253.4375 254.070312 253.546875 253.917969 253.621094 C 253.769531 259.015625 253.808594 264.445312 253.917969 269.835938 C 255.332031 269.277344 256.484375 268.238281 257.714844 267.34375 C 262.734375 263.515625 267.121094 258.792969 270.429688 253.4375 C 268.199219 253.140625 265.894531 253.324219 263.664062 253.289062 C 260.578125 253.363281 257.488281 253.214844 254.402344 253.363281 Z M 176.828125 253.957031 C 177.871094 256.003906 179.394531 257.75 180.808594 259.535156 C 184.378906 263.773438 188.542969 267.605469 193.304688 270.429688 C 193.601562 266.824219 193.378906 263.21875 193.453125 259.609375 C 193.378906 257.75 193.636719 255.890625 193.304688 254.070312 C 192.484375 253.769531 191.628906 253.917969 190.773438 253.882812 C 186.125 253.917969 181.476562 253.769531 176.828125 253.957031 Z M 218.480469 269.054688 C 215.652344 271.882812 212.753906 274.632812 210 277.535156 C 211.601562 278.167969 213.308594 278.390625 215.019531 278.648438 C 222.234375 279.691406 229.671875 279.46875 236.703125 277.609375 C 236.402344 277.199219 236.070312 276.753906 235.699219 276.382812 C 231.605469 272.363281 227.554688 268.273438 223.425781 264.296875 C 221.679688 265.78125 220.117188 267.457031 218.480469 269.054688 Z M 130.828125 297.019531 C 130.714844 306.09375 130.789062 315.207031 130.789062 324.28125 C 130.679688 325.246094 131.757812 325.097656 132.390625 325.136719 C 137.074219 325.023438 141.796875 325.394531 146.410156 324.613281 C 149.347656 324.128906 152.359375 322.867188 154.144531 320.375 C 156.117188 317.660156 156.488281 314.164062 156.5625 310.890625 C 156.523438 307.246094 155.855469 303.230469 153.066406 300.589844 C 149.941406 297.691406 145.40625 297.132812 141.316406 296.945312 C 137.820312 296.945312 134.324219 296.871094 130.828125 297.019531 Z M 167.011719 297.09375 C 164.816406 302.5625 162.996094 308.214844 160.949219 313.753906 C 159.683594 317.511719 158.085938 321.191406 157.121094 325.058594 C 159.648438 325.097656 162.214844 325.246094 164.742188 324.984375 C 165.859375 323.535156 165.636719 321.339844 166.601562 319.742188 C 167.085938 319.257812 175.527344 319.480469 175.640625 319.519531 C 176.421875 320.859375 176.644531 322.644531 177.199219 324.09375 C 177.351562 324.539062 177.535156 325.171875 178.167969 325.097656 C 180.660156 325.136719 183.152344 325.171875 185.644531 325.058594 C 185.34375 323.609375 184.75 322.234375 184.265625 320.820312 C 181.550781 313.234375 178.875 305.648438 176.234375 298.0625 C 176.046875 297.617188 175.863281 296.910156 175.230469 296.984375 C 172.441406 296.984375 169.6875 296.796875 167.011719 297.09375 Z M 188.953125 297.019531 C 188.878906 306.132812 188.914062 315.207031 188.914062 324.316406 C 188.765625 325.394531 190.105469 325.097656 190.738281 325.136719 C 192.671875 325.023438 194.679688 325.320312 196.574219 324.949219 C 196.984375 321.824219 196.390625 318.628906 196.875 315.539062 C 197.730469 314.574219 198.621094 313.125 199.996094 313.046875 C 202.636719 316.691406 204.867188 320.597656 207.398438 324.316406 C 207.84375 325.171875 208.886719 324.875 209.703125 324.949219 C 212.230469 324.835938 214.761719 325.097656 217.289062 324.800781 C 213.980469 320.003906 210.335938 315.390625 206.878906 310.707031 C 206.246094 309.777344 205.390625 308.957031 205.015625 307.917969 C 205.167969 307.546875 205.390625 307.210938 205.722656 306.914062 C 209.070312 303.566406 212.714844 300.515625 215.914062 297.058594 C 213.460938 296.871094 211.003906 297.019531 208.550781 296.945312 C 207.808594 296.984375 206.878906 296.835938 206.394531 297.503906 C 203.53125 300.589844 200.742188 303.75 197.839844 306.839844 C 197.65625 307.246094 196.726562 307.320312 196.800781 306.765625 C 196.613281 303.527344 196.835938 300.292969 196.6875 297.058594 C 194.121094 296.910156 191.519531 296.910156 188.953125 297.019531 Z M 229.933594 298.210938 C 229.933594 306.652344 229.933594 315.09375 229.933594 323.574219 C 229.972656 324.054688 229.859375 324.652344 230.230469 325.023438 C 231.941406 325.285156 233.652344 325.058594 235.398438 325.136719 C 240.753906 325.136719 246.074219 325.171875 251.429688 325.136719 C 251.949219 325.210938 252.46875 324.910156 252.394531 324.355469 C 252.433594 322.605469 252.46875 320.894531 252.394531 319.148438 C 252.433594 318.664062 251.800781 318.515625 251.464844 318.550781 C 247.484375 318.515625 243.542969 318.589844 239.566406 318.550781 C 238.820312 318.664062 238.488281 317.921875 238.523438 317.289062 C 238.488281 310.558594 238.597656 303.824219 238.488281 297.09375 C 235.882812 296.984375 233.242188 296.984375 230.601562 297.058594 C 229.820312 296.945312 229.972656 297.765625 229.933594 298.210938 Z M 265 297.652344 C 261.878906 306.242188 258.828125 314.871094 255.777344 323.460938 C 255.667969 323.945312 255.257812 324.503906 255.554688 325.023438 C 257.378906 325.246094 259.273438 325.058594 261.097656 325.136719 C 261.804688 325.097656 262.546875 325.246094 263.21875 324.910156 C 264.148438 323.238281 263.847656 320.933594 265.152344 319.519531 C 267.492188 319.296875 269.910156 319.519531 272.253906 319.445312 C 272.847656 319.519531 273.667969 319.222656 274.039062 319.855469 C 274.96875 321.453125 274.855469 323.574219 275.972656 325.058594 C 278.574219 325.246094 281.214844 325.171875 283.855469 325.097656 C 283.371094 323.164062 282.589844 321.304688 281.960938 319.40625 C 279.246094 312.007812 276.828125 304.53125 274.039062 297.167969 C 271.882812 296.722656 269.613281 297.09375 267.417969 296.945312 C 266.601562 297.058594 265.261719 296.613281 265 297.652344 Z M 287.164062 298.246094 C 287.203125 306.914062 287.128906 315.613281 287.203125 324.28125 C 287.015625 325.320312 288.320312 325.136719 288.949219 325.136719 C 290.921875 325.058594 292.894531 325.285156 294.863281 324.984375 C 295.234375 322.308594 294.902344 319.519531 295.011719 316.804688 C 294.828125 314.90625 296.835938 313.976562 297.949219 312.824219 C 299.660156 314.460938 300.628906 316.691406 302.003906 318.589844 C 303.453125 320.636719 304.53125 322.976562 306.207031 324.835938 C 309.105469 325.058594 312.042969 324.910156 314.945312 324.910156 C 315.726562 324.984375 315.207031 324.167969 314.984375 323.871094 C 311.226562 318.703125 307.285156 313.679688 303.566406 308.511719 C 302.933594 307.769531 303.789062 307.0625 304.308594 306.578125 C 307.582031 303.378906 311.039062 300.367188 314.203125 297.058594 C 311.859375 296.835938 309.480469 296.984375 307.136719 296.945312 C 306.28125 296.984375 305.238281 296.761719 304.644531 297.578125 C 301.78125 300.664062 298.992188 303.863281 296.054688 306.914062 C 295.757812 307.359375 295.050781 307.320312 295.050781 306.691406 C 294.902344 303.453125 295.085938 300.257812 294.976562 297.019531 C 292.59375 296.910156 290.179688 296.910156 287.796875 296.984375 C 287.054688 296.871094 287.203125 297.765625 287.164062 298.246094 Z M 99.625 335.734375 C 104.199219 344.546875 108.921875 353.285156 113.570312 362.0625 C 113.945312 362.730469 114.316406 363.734375 115.28125 363.550781 C 187.316406 363.550781 259.347656 363.550781 331.382812 363.550781 C 332.089844 363.660156 332.648438 363.179688 332.90625 362.582031 C 337.667969 353.65625 342.464844 344.695312 347.148438 335.695312 C 340.640625 335.585938 334.171875 335.695312 327.664062 335.621094 C 326.917969 335.660156 325.914062 335.398438 325.542969 336.253906 C 324.054688 338.855469 322.71875 341.570312 321.230469 344.175781 C 320.96875 344.734375 320.410156 344.992188 319.855469 344.917969 C 255.519531 344.917969 191.144531 344.917969 126.8125 344.917969 C 126.328125 344.917969 125.882812 344.769531 125.660156 344.324219 C 123.949219 341.496094 122.644531 338.449219 120.859375 335.695312 C 119.152344 335.472656 117.402344 335.660156 115.691406 335.585938 C 110.300781 335.734375 104.980469 335.585938 99.625 335.734375 Z M 143.023438 372.625 C 143.0625 379.988281 142.988281 387.3125 143.0625 394.640625 C 148.566406 394.898438 154.070312 394.675781 159.574219 394.75 C 159.984375 394.675781 160.949219 394.863281 160.914062 394.191406 C 161.023438 387.015625 160.914062 379.800781 160.949219 372.625 C 160.875 372.101562 161.097656 371.0625 160.242188 371.136719 C 154.777344 371.097656 149.347656 371.097656 143.878906 371.136719 C 142.949219 370.914062 143.023438 371.992188 143.023438 372.625 Z M 285.902344 371.171875 C 285.714844 373.628906 285.828125 376.121094 285.789062 378.574219 C 285.828125 383.929688 285.714844 389.320312 285.828125 394.675781 C 288.207031 394.863281 290.625 394.714844 293.003906 394.75 C 296.539062 394.640625 300.105469 394.972656 303.640625 394.566406 C 303.640625 387.015625 303.675781 379.429688 303.640625 371.878906 C 303.75 370.875 302.523438 371.136719 301.890625 371.097656 C 296.613281 371.136719 291.257812 371.023438 285.902344 371.171875 Z M 285.902344 371.171875 "/>
<path style=" stroke:none;fill-rule:nonzero;fill:rgb(100%,0%,0%);fill-opacity:1;" d="M 219.558594 206.988281 C 220.226562 206.800781 221.417969 206.503906 221.492188 207.507812 C 221.566406 217.921875 221.492188 228.335938 221.527344 238.746094 C 221.601562 239.304688 221.269531 240.160156 220.5625 239.9375 C 214.945312 239.007812 210.039062 234.992188 207.84375 229.785156 C 206.023438 225.472656 206.132812 220.339844 208.214844 216.097656 C 210.410156 211.601562 214.648438 208.140625 219.558594 206.988281 Z M 219.558594 206.988281 "/>
<path style=" stroke:none;fill-rule:nonzero;fill:rgb(100%,0%,0%);fill-opacity:1;" d="M 225.804688 206.800781 C 234.285156 207.730469 241.015625 216.175781 240.160156 224.652344 C 239.714844 232.203125 233.539062 238.894531 226.101562 239.972656 C 225.398438 240.011719 225.210938 239.304688 225.285156 238.746094 C 225.285156 228.558594 225.285156 218.367188 225.285156 208.214844 C 225.285156 207.695312 225.136719 206.988281 225.804688 206.800781 Z M 225.804688 206.800781 "/>
<path style=" stroke:none;fill-rule:nonzero;fill:rgb(100%,0%,0%);fill-opacity:1;" d="M 139.15625 303.15625 C 141.574219 302.933594 144.214844 302.820312 146.519531 303.863281 C 148.566406 304.867188 149.273438 307.285156 149.308594 309.40625 C 149.421875 311.96875 149.53125 314.871094 147.859375 317.027344 C 146.1875 319 143.324219 318.960938 140.941406 319.035156 C 140.125 319.074219 138.710938 319.148438 138.75 317.957031 C 138.636719 313.71875 138.75 309.515625 138.710938 305.277344 C 138.75 304.570312 138.5625 303.714844 139.15625 303.15625 Z M 139.15625 303.15625 "/>
<path style=" stroke:none;fill-rule:nonzero;fill:rgb(100%,0%,0%);fill-opacity:1;" d="M 171.25 304.792969 C 172.328125 306.316406 173.890625 312.117188 174.078125 314.277344 C 174.078125 314.425781 173.964844 314.535156 173.855469 314.535156 C 172.144531 314.648438 170.394531 314.796875 168.683594 314.535156 C 168.535156 314.5 168.386719 314.386719 168.386719 314.203125 C 168.277344 312.714844 169.910156 307.136719 170.953125 304.792969 C 170.992188 304.679688 171.175781 304.679688 171.25 304.792969 Z M 171.25 304.792969 "/>
<path style=" stroke:none;fill-rule:nonzero;fill:rgb(100%,0%,0%);fill-opacity:1;" d="M 269.09375 305.089844 C 269.242188 304.382812 270.097656 305.128906 270.097656 305.574219 C 270.839844 308.101562 271.546875 310.632812 272.289062 313.199219 C 272.402344 313.644531 272.664062 314.648438 271.84375 314.648438 C 270.171875 314.722656 268.421875 314.832031 266.75 314.535156 C 266.265625 313.753906 266.824219 312.898438 267.011719 312.082031 C 267.714844 309.738281 268.164062 307.359375 269.09375 305.089844 Z M 269.09375 305.089844 "/>
<path style=" stroke:none;fill-rule:nonzero;fill:rgb(100%,100%,100%);fill-opacity:1;" d="M 209.589844 6.992188 C 228.410156 5.875 247.375 7.027344 265.855469 10.710938 C 294.195312 16.398438 321.417969 27.742188 345.289062 44.066406 C 376.828125 65.523438 402.597656 95.425781 419.035156 129.859375 C 425.394531 142.914062 430.191406 156.671875 433.761719 170.730469 C 438.113281 187.949219 440.15625 205.722656 440.195312 223.5 C 440.121094 241.722656 437.964844 259.980469 433.351562 277.609375 C 429.707031 291.441406 424.910156 304.980469 418.589844 317.808594 C 406.316406 343.246094 388.949219 366.191406 367.902344 385.007812 C 347.671875 403.117188 323.980469 417.433594 298.507812 426.808594 C 283.074219 432.460938 267.011719 436.511719 250.648438 438.484375 C 232.128906 440.789062 213.308594 440.714844 194.789062 438.335938 C 164.707031 434.394531 135.476562 423.980469 109.628906 408.027344 C 92.933594 397.726562 77.6875 385.15625 64.335938 370.765625 C 46.929688 351.984375 32.910156 330.117188 23.054688 306.464844 C 17.144531 291.964844 12.644531 276.902344 9.890625 261.46875 C 5.429688 236.03125 5.464844 209.851562 10.039062 184.453125 C 12.308594 171.847656 15.804688 159.5 20.230469 147.488281 C 29.640625 122.273438 43.84375 98.847656 61.804688 78.839844 C 88.953125 48.457031 124.804688 25.882812 164.035156 14.839844 C 178.835938 10.488281 194.195312 7.996094 209.589844 6.992188 Z M 210.296875 12.570312 C 202.152344 13.128906 194.046875 14.058594 186.015625 15.46875 C 160.6875 19.933594 136.257812 29.191406 114.277344 42.507812 C 90.703125 56.75 69.949219 75.640625 53.550781 97.804688 C 36.964844 120.15625 24.839844 145.851562 18.222656 172.886719 C 9.371094 209.144531 10.226562 247.710938 20.824219 283.484375 C 24.953125 297.207031 30.382812 310.558594 37.1875 323.164062 C 47.75 342.800781 61.433594 360.761719 77.535156 376.15625 C 101.671875 399.289062 131.386719 416.542969 163.480469 425.988281 C 197.804688 436.105469 234.695312 437.292969 269.613281 429.523438 C 284.265625 426.324219 298.507812 421.339844 312.117188 415.09375 C 337.035156 403.488281 359.683594 387.015625 378.351562 366.824219 C 397.464844 346.183594 412.488281 321.714844 422.007812 295.199219 C 439.710938 246.59375 438.667969 191.445312 418.960938 143.582031 C 405.5 110.410156 383.296875 80.847656 355.332031 58.460938 C 332.832031 40.421875 306.578125 27.035156 278.722656 19.488281 C 256.484375 13.5 233.28125 11.15625 210.296875 12.570312 Z M 210.296875 12.570312 "/>
<path style=" stroke:none;fill-rule:nonzero;fill:rgb(100%,100%,100%);fill-opacity:1;" d="M 205.015625 40.164062 C 205.015625 38.636719 204.941406 37.113281 205.128906 35.589844 C 209.070312 39.269531 212.714844 43.25 216.546875 47.078125 C 218.738281 49.238281 220.785156 51.617188 223.128906 53.664062 C 224.132812 53.773438 224.652344 52.582031 225.320312 52.027344 C 230.714844 46.523438 236.03125 40.980469 241.5 35.589844 C 241.609375 36.109375 241.683594 36.628906 241.683594 37.1875 C 241.683594 47.488281 241.683594 57.789062 241.683594 68.089844 C 241.648438 68.796875 241.871094 69.46875 242.316406 70.023438 C 289.769531 135.140625 337.183594 200.257812 384.636719 265.375 C 385.082031 265.894531 385.492188 266.710938 386.347656 266.601562 C 392.074219 266.636719 397.761719 266.601562 403.488281 266.601562 C 404.941406 266.636719 406.429688 266.488281 407.878906 266.785156 C 405.273438 271.84375 402.523438 276.828125 399.882812 281.886719 C 399.546875 282.367188 399.324219 283.1875 398.582031 283.148438 C 393.375 283.222656 388.207031 283.148438 383 283.1875 C 380.84375 283.113281 378.648438 283.335938 376.527344 283.074219 C 375.414062 282.21875 374.78125 280.84375 373.886719 279.800781 C 324.019531 211.375 274.113281 142.839844 224.207031 74.339844 C 223.796875 73.484375 222.90625 73.59375 222.496094 74.375 C 172.105469 143.546875 121.714844 212.714844 71.328125 281.886719 C 70.878906 282.441406 70.433594 283.296875 69.542969 283.1875 C 62.476562 283.1875 55.371094 283.1875 48.308594 283.1875 C 47.601562 283.296875 47.191406 282.667969 46.929688 282.109375 C 44.589844 277.644531 42.207031 273.183594 39.828125 268.757812 C 39.53125 268.089844 38.9375 267.457031 39.046875 266.675781 C 46.335938 266.414062 53.664062 266.75 60.949219 266.527344 C 61.769531 266.007812 62.253906 265.078125 62.847656 264.332031 C 109.554688 200.257812 156.226562 136.109375 202.972656 71.996094 C 203.789062 70.769531 205.128906 69.652344 205.054688 68.015625 C 205.015625 58.757812 205.015625 49.460938 205.015625 40.164062 Z M 205.015625 40.164062 "/>
<path style=" stroke:none;fill-rule:nonzero;fill:rgb(100%,100%,100%);fill-opacity:1;" d="M 220.226562 90.03125 C 221.269531 88.617188 222.199219 87.09375 223.425781 85.828125 C 266.042969 144.179688 308.511719 202.636719 351.09375 260.984375 C 356.335938 268.347656 361.839844 275.527344 367.007812 282.964844 C 365.371094 283.519531 363.511719 283.113281 361.800781 283.222656 C 360.984375 283.335938 360.539062 282.628906 360.128906 282.070312 C 314.796875 219.820312 269.425781 157.601562 224.09375 95.351562 C 223.761719 94.679688 222.90625 94.679688 222.609375 95.386719 C 177.351562 157.492188 132.09375 219.59375 86.871094 281.738281 C 86.386719 282.292969 86.015625 283.222656 85.160156 283.222656 C 83.300781 283.261719 81.441406 283.335938 79.621094 283.113281 C 83.226562 277.90625 87.019531 272.847656 90.738281 267.714844 C 133.914062 208.476562 177.089844 149.273438 220.226562 90.03125 Z M 220.226562 90.03125 "/>
<path style=" stroke:none;fill-rule:nonzero;fill:rgb(100%,100%,100%);fill-opacity:1;" d="M 210.074219 169.132812 C 218.441406 166.9375 227.367188 166.972656 235.808594 168.871094 C 236.253906 168.832031 236.886719 169.355469 236.328125 169.726562 C 232.128906 173.855469 228 178.054688 223.722656 182.148438 C 223.351562 182.628906 222.832031 181.960938 222.53125 181.738281 C 219.296875 178.503906 216.023438 175.339844 212.789062 172.105469 C 211.859375 171.140625 210.78125 170.246094 210.074219 169.132812 Z M 210.074219 169.132812 "/>
<path style=" stroke:none;fill-rule:nonzero;fill:rgb(100%,100%,100%);fill-opacity:1;" d="M 243.542969 171.324219 C 245.105469 171.808594 246.707031 172.328125 248.007812 173.332031 C 248.230469 174.5625 248.082031 175.789062 248.117188 177.015625 C 248.042969 183.707031 248.007812 190.441406 248.042969 197.132812 C 247.894531 197.804688 248.453125 198.324219 249.121094 198.210938 C 256.933594 198.25 264.777344 198.25 272.625 198.359375 C 273.257812 198.25 273.480469 198.917969 273.742188 199.328125 C 274.335938 200.480469 274.855469 201.671875 275.152344 202.898438 C 272.179688 203.082031 269.203125 202.898438 266.265625 202.933594 C 259.945312 202.933594 253.621094 202.933594 247.261719 202.898438 C 246.035156 202.859375 244.773438 203.007812 243.542969 202.75 C 243.394531 202.378906 243.320312 202.003906 243.359375 201.597656 C 243.394531 192.410156 243.46875 183.226562 243.46875 174.039062 C 243.46875 173.109375 243.46875 172.21875 243.542969 171.324219 Z M 243.542969 171.324219 "/>
<path style=" stroke:none;fill-rule:nonzero;fill:rgb(100%,100%,100%);fill-opacity:1;" d="M 198.210938 173.707031 C 199.550781 172.738281 201.148438 172.105469 202.710938 171.660156 C 202.859375 180.511719 202.75 189.363281 202.785156 198.210938 C 202.785156 199.921875 202.824219 201.671875 202.710938 203.382812 C 197.246094 203.640625 191.777344 203.417969 186.3125 203.492188 C 181.292969 203.457031 176.308594 203.53125 171.289062 203.457031 C 171.734375 201.855469 172.21875 200.144531 173.332031 198.917969 C 181.253906 198.769531 189.175781 198.917969 197.058594 198.84375 C 197.617188 198.882812 198.175781 198.472656 198.0625 197.878906 C 198.101562 191.070312 198.0625 184.230469 198.0625 177.425781 C 198.101562 176.160156 197.988281 174.933594 198.210938 173.707031 Z M 198.210938 173.707031 "/>
<path style=" stroke:none;fill-rule:nonzero;fill:rgb(100%,100%,100%);fill-opacity:1;" d="M 253.585938 176.496094 C 255.332031 177.3125 256.785156 178.578125 258.308594 179.730469 C 262.511719 183.078125 266.15625 187.09375 269.203125 191.519531 C 269.539062 191.964844 269.726562 192.484375 269.910156 193.003906 C 264.851562 193.003906 259.757812 193.003906 254.699219 193.003906 C 254.253906 192.96875 253.363281 193.042969 253.472656 192.335938 C 253.472656 187.054688 253.4375 181.773438 253.585938 176.496094 Z M 253.585938 176.496094 "/>
<path style=" stroke:none;fill-rule:nonzero;fill:rgb(100%,100%,100%);fill-opacity:1;" d="M 178.984375 189.398438 C 182.816406 184.453125 187.425781 180.101562 192.746094 176.828125 C 193.042969 181.847656 192.78125 186.871094 192.894531 191.890625 C 192.820312 192.375 193.042969 193.414062 192.226562 193.378906 C 186.945312 193.453125 181.664062 193.453125 176.382812 193.378906 C 176.976562 191.890625 178.054688 190.664062 178.984375 189.398438 Z M 178.984375 189.398438 "/>
<path style=" stroke:none;fill-rule:nonzero;fill:rgb(100%,100%,100%);fill-opacity:1;" d="M 209.816406 178.429688 C 214.128906 182.296875 218.070312 186.535156 222.234375 190.550781 C 222.644531 190.847656 222.980469 191.445312 223.539062 191.371094 C 224.429688 190.847656 225.0625 190.03125 225.769531 189.324219 C 229.449219 185.679688 233.09375 182 236.851562 178.429688 C 237.183594 179.65625 237.035156 180.957031 237.074219 182.222656 C 237.074219 190.921875 237.074219 199.589844 237.074219 208.253906 C 237.035156 208.847656 237.222656 209.742188 238.003906 209.628906 C 248.117188 209.742188 258.234375 209.515625 268.3125 209.742188 C 264.332031 214.238281 259.90625 218.292969 255.742188 222.644531 C 255.296875 222.980469 255.257812 223.574219 255.667969 223.945312 C 259.832031 228.335938 264.257812 232.425781 268.3125 236.925781 C 258.234375 237.183594 248.117188 236.925781 238.039062 237.035156 C 237.484375 236.960938 236.960938 237.410156 237.074219 238.003906 C 236.960938 248.082031 237.183594 258.195312 236.960938 268.273438 C 232.460938 264.257812 228.371094 259.796875 223.984375 255.628906 C 223.613281 255.183594 222.980469 255.222656 222.683594 255.667969 C 219.519531 258.71875 216.472656 261.839844 213.308594 264.890625 C 212.121094 266.007812 211.078125 267.269531 209.777344 268.199219 C 209.554688 258.085938 209.777344 247.96875 209.667969 237.890625 C 209.777344 237.035156 208.886719 236.886719 208.253906 236.960938 C 198.957031 237 189.660156 236.960938 180.324219 236.960938 C 179.65625 237 179.023438 236.851562 178.390625 236.738281 C 182.445312 232.460938 186.648438 228.371094 190.773438 224.167969 C 191.109375 223.796875 191.667969 223.203125 191.109375 222.757812 C 186.945312 218.332031 182.480469 214.203125 178.390625 209.703125 C 188.582031 209.367188 198.769531 209.703125 208.921875 209.515625 C 209.628906 209.515625 209.667969 208.660156 209.667969 208.179688 C 209.667969 200.109375 209.667969 192.039062 209.667969 183.96875 C 209.703125 182.183594 209.589844 180.289062 209.816406 178.429688 Z M 219.558594 206.988281 C 214.6875 208.140625 210.410156 211.601562 208.253906 216.136719 C 206.171875 220.339844 206.023438 225.472656 207.882812 229.820312 C 210.039062 235.027344 214.984375 239.082031 220.597656 239.972656 C 221.304688 240.199219 221.640625 239.34375 221.566406 238.785156 C 221.566406 228.371094 221.601562 217.960938 221.527344 207.546875 C 221.417969 206.503906 220.191406 206.800781 219.558594 206.988281 Z M 225.804688 206.800781 C 225.171875 206.988281 225.285156 207.695312 225.246094 208.214844 C 225.246094 218.40625 225.246094 228.59375 225.246094 238.746094 C 225.210938 239.304688 225.359375 240.011719 226.066406 239.972656 C 233.503906 238.859375 239.675781 232.164062 240.121094 224.652344 C 240.976562 216.175781 234.246094 207.730469 225.804688 206.800781 Z M 225.804688 206.800781 "/>
<path style=" stroke:none;fill-rule:nonzero;fill:rgb(100%,100%,100%);fill-opacity:1;" d="M 275.152344 212.304688 C 275.898438 211.488281 276.714844 210.707031 277.609375 210.039062 C 279.542969 217.105469 279.691406 224.617188 278.648438 231.867188 C 278.390625 233.429688 278.167969 235.027344 277.683594 236.515625 C 277.199219 236.515625 276.902344 236.144531 276.566406 235.847656 C 273.628906 232.835938 270.65625 229.859375 267.714844 226.882812 C 266.5625 225.695312 265.335938 224.617188 264.332031 223.277344 C 267.941406 219.632812 271.507812 215.949219 275.152344 212.304688 Z M 275.152344 212.304688 "/>
<path style=" stroke:none;fill-rule:nonzero;fill:rgb(100%,100%,100%);fill-opacity:1;" d="M 169.132812 210.039062 C 169.988281 210.671875 170.804688 211.449219 171.511719 212.230469 C 174.933594 215.652344 178.28125 219.113281 181.699219 222.53125 C 181.886719 222.867188 182.628906 223.351562 182.109375 223.722656 C 179.285156 226.734375 176.308594 229.636719 173.40625 232.574219 C 171.957031 233.949219 170.691406 235.472656 169.132812 236.738281 C 167.53125 231.011719 167.234375 224.949219 167.605469 219.039062 C 167.941406 216.023438 168.277344 212.976562 169.132812 210.039062 Z M 169.132812 210.039062 "/>
<path style=" stroke:none;fill-rule:nonzero;fill:rgb(100%,100%,100%);fill-opacity:1;" d="M 244.214844 243.394531 C 244.621094 243.285156 244.996094 243.246094 245.441406 243.246094 C 254.886719 243.246094 264.296875 243.246094 273.742188 243.246094 C 274.335938 243.246094 274.96875 243.320312 275.5625 243.394531 C 275.078125 244.773438 274.558594 246.148438 273.851562 247.449219 C 273.628906 247.933594 273.035156 247.859375 272.625 247.894531 C 265.1875 247.894531 257.75 247.894531 250.3125 247.894531 C 249.71875 247.933594 248.640625 247.859375 248.714844 248.75 C 248.675781 255.816406 248.714844 262.882812 248.714844 269.949219 C 248.675781 270.953125 248.824219 272.03125 248.566406 273.035156 C 247.261719 274 245.703125 274.523438 244.175781 275.078125 C 243.878906 273.628906 244.027344 272.140625 243.992188 270.691406 C 243.992188 262.136719 243.992188 253.621094 243.992188 245.070312 C 243.992188 244.511719 243.878906 243.917969 244.214844 243.394531 Z M 244.214844 243.394531 "/>
<path style=" stroke:none;fill-rule:nonzero;fill:rgb(100%,100%,100%);fill-opacity:1;" d="M 171.695312 244.027344 C 181.886719 243.84375 192.113281 243.992188 202.304688 243.953125 C 203.007812 243.804688 203.605469 244.289062 203.457031 245.03125 C 203.457031 255.183594 203.492188 265.300781 203.417969 275.414062 C 201.855469 275.117188 200.367188 274.449219 198.992188 273.628906 C 198.695312 273.070312 198.84375 272.4375 198.808594 271.84375 C 198.84375 264.628906 198.808594 257.453125 198.808594 250.238281 C 198.84375 249.570312 198.769531 248.527344 197.839844 248.675781 C 190.886719 248.640625 183.96875 248.675781 177.015625 248.675781 C 175.898438 248.601562 174.710938 248.863281 173.632812 248.492188 C 172.699219 247.152344 172.105469 245.589844 171.695312 244.027344 Z M 171.695312 244.027344 "/>
<path style=" stroke:none;fill-rule:nonzero;fill:rgb(100%,100%,100%);fill-opacity:1;" d="M 254.402344 253.363281 C 257.488281 253.214844 260.578125 253.363281 263.664062 253.289062 C 265.929688 253.324219 268.199219 253.140625 270.429688 253.4375 C 267.121094 258.828125 262.695312 263.515625 257.714844 267.34375 C 256.484375 268.238281 255.332031 269.242188 253.917969 269.835938 C 253.808594 264.445312 253.769531 259.015625 253.917969 253.621094 C 254.070312 253.546875 254.292969 253.4375 254.402344 253.363281 Z M 254.402344 253.363281 "/>
<path style=" stroke:none;fill-rule:nonzero;fill:rgb(100%,100%,100%);fill-opacity:1;" d="M 176.828125 253.957031 C 181.476562 253.769531 186.125 253.917969 190.773438 253.882812 C 191.628906 253.917969 192.484375 253.769531 193.304688 254.070312 C 193.636719 255.890625 193.378906 257.75 193.453125 259.609375 C 193.378906 263.21875 193.636719 266.824219 193.304688 270.429688 C 188.542969 267.605469 184.378906 263.773438 180.808594 259.535156 C 179.394531 257.75 177.871094 256.003906 176.828125 253.957031 Z M 176.828125 253.957031 "/>
<path style=" stroke:none;fill-rule:nonzero;fill:rgb(100%,100%,100%);fill-opacity:1;" d="M 218.480469 269.054688 C 220.117188 267.457031 221.679688 265.78125 223.425781 264.296875 C 227.554688 268.273438 231.605469 272.363281 235.699219 276.382812 C 236.070312 276.753906 236.367188 277.199219 236.703125 277.609375 C 229.636719 279.46875 222.199219 279.691406 215.019531 278.648438 C 213.347656 278.390625 211.601562 278.167969 210 277.535156 C 212.714844 274.632812 215.652344 271.882812 218.480469 269.054688 Z M 218.480469 269.054688 "/>
<path style=" stroke:none;fill-rule:nonzero;fill:rgb(100%,100%,100%);fill-opacity:1;" d="M 130.828125 297.019531 C 134.324219 296.871094 137.820312 296.945312 141.316406 296.984375 C 145.40625 297.167969 149.90625 297.691406 153.066406 300.628906 C 155.855469 303.230469 156.523438 307.246094 156.5625 310.929688 C 156.523438 314.203125 156.152344 317.695312 154.144531 320.410156 C 152.359375 322.902344 149.347656 324.167969 146.410156 324.652344 C 141.761719 325.394531 137.039062 325.058594 132.390625 325.171875 C 131.757812 325.171875 130.679688 325.285156 130.789062 324.316406 C 130.789062 315.207031 130.714844 306.132812 130.828125 297.019531 Z M 139.15625 303.15625 C 138.5625 303.714844 138.75 304.570312 138.710938 305.3125 C 138.75 309.515625 138.675781 313.753906 138.75 317.996094 C 138.710938 319.183594 140.125 319.074219 140.941406 319.074219 C 143.324219 319 146.148438 319.035156 147.859375 317.066406 C 149.53125 314.945312 149.382812 312.007812 149.308594 309.441406 C 149.273438 307.320312 148.566406 304.90625 146.519531 303.902344 C 144.214844 302.820312 141.574219 302.933594 139.15625 303.15625 Z M 139.15625 303.15625 "/>
<path style=" stroke:none;fill-rule:nonzero;fill:rgb(100%,100%,100%);fill-opacity:1;" d="M 167.011719 297.09375 C 169.6875 296.796875 172.441406 296.984375 175.15625 296.984375 C 175.789062 296.910156 175.972656 297.617188 176.160156 298.0625 C 178.800781 305.648438 181.476562 313.234375 184.191406 320.820312 C 184.675781 322.234375 185.269531 323.609375 185.566406 325.058594 C 183.078125 325.171875 180.585938 325.136719 178.09375 325.097656 C 177.5 325.171875 177.3125 324.539062 177.125 324.09375 C 176.605469 322.644531 176.382812 320.859375 175.566406 319.519531 C 175.453125 319.480469 167.011719 319.257812 166.527344 319.742188 C 165.597656 321.339844 165.820312 323.535156 164.667969 324.984375 C 162.140625 325.246094 159.574219 325.097656 157.046875 325.058594 C 158.050781 321.191406 159.609375 317.511719 160.875 313.753906 C 162.996094 308.214844 164.816406 302.5625 167.011719 297.09375 Z M 168.460938 314.5 C 170.320312 314.832031 172.253906 314.683594 174.113281 314.535156 C 174.039062 312.453125 172.144531 305.574219 171.066406 304.53125 C 169.988281 306.875 167.941406 313.679688 168.460938 314.5 Z M 168.460938 314.5 "/>
<path style=" stroke:none;fill-rule:nonzero;fill:rgb(100%,100%,100%);fill-opacity:1;" d="M 188.953125 297.019531 C 191.519531 296.910156 194.121094 296.910156 196.726562 297.019531 C 196.875 300.257812 196.648438 303.492188 196.835938 306.726562 C 196.800781 307.320312 197.691406 307.246094 197.878906 306.800781 C 200.777344 303.714844 203.566406 300.589844 206.429688 297.46875 C 206.953125 296.796875 207.84375 296.945312 208.585938 296.910156 C 211.042969 296.984375 213.496094 296.835938 215.949219 297.019531 C 212.753906 300.480469 209.109375 303.527344 205.761719 306.875 C 205.464844 307.171875 205.203125 307.46875 205.054688 307.878906 C 205.464844 308.957031 206.28125 309.738281 206.914062 310.667969 C 210.371094 315.390625 213.980469 319.964844 217.328125 324.761719 C 214.796875 325.058594 212.269531 324.835938 209.742188 324.910156 C 208.960938 324.835938 207.917969 325.097656 207.433594 324.28125 C 204.90625 320.5625 202.675781 316.617188 200.035156 313.011719 C 198.660156 313.085938 197.765625 314.574219 196.910156 315.503906 C 196.425781 318.589844 197.023438 321.789062 196.613281 324.910156 C 194.679688 325.285156 192.707031 324.984375 190.773438 325.097656 C 190.105469 325.058594 188.804688 325.359375 188.953125 324.28125 C 188.914062 315.207031 188.878906 306.132812 188.953125 297.019531 Z M 188.953125 297.019531 "/>
<path style=" stroke:none;fill-rule:nonzero;fill:rgb(100%,100%,100%);fill-opacity:1;" d="M 229.933594 298.210938 C 229.972656 297.765625 229.820312 296.910156 230.527344 296.984375 C 233.132812 296.910156 235.773438 296.910156 238.414062 297.019531 C 238.523438 303.75 238.414062 310.484375 238.449219 317.214844 C 238.375 317.847656 238.746094 318.589844 239.492188 318.476562 C 243.46875 318.550781 247.410156 318.476562 251.390625 318.476562 C 251.761719 318.441406 252.394531 318.589844 252.320312 319.074219 C 252.394531 320.820312 252.359375 322.53125 252.320312 324.28125 C 252.394531 324.875 251.875 325.136719 251.355469 325.058594 C 246 325.097656 240.679688 325.058594 235.324219 325.058594 C 233.613281 324.984375 231.867188 325.210938 230.15625 324.949219 C 229.785156 324.578125 229.894531 323.980469 229.859375 323.5 C 229.933594 315.132812 229.933594 306.691406 229.933594 298.210938 Z M 229.933594 298.210938 "/>
<path style=" stroke:none;fill-rule:nonzero;fill:rgb(100%,100%,100%);fill-opacity:1;" d="M 265 297.652344 C 265.300781 296.613281 266.601562 297.058594 267.417969 296.945312 C 269.613281 297.09375 271.882812 296.6875 274.039062 297.167969 C 276.828125 304.496094 279.246094 312.007812 281.960938 319.40625 C 282.589844 321.304688 283.371094 323.125 283.855469 325.097656 C 281.253906 325.171875 278.613281 325.285156 275.972656 325.058594 C 274.855469 323.574219 274.96875 321.453125 274.039062 319.855469 C 273.667969 319.222656 272.847656 319.558594 272.253906 319.445312 C 269.875 319.519531 267.492188 319.332031 265.152344 319.519531 C 263.8125 320.933594 264.109375 323.238281 263.21875 324.910156 C 262.546875 325.246094 261.804688 325.097656 261.097656 325.136719 C 259.238281 325.058594 257.378906 325.246094 255.554688 325.023438 C 255.257812 324.503906 255.667969 323.980469 255.777344 323.460938 C 258.792969 314.871094 261.878906 306.242188 265 297.652344 Z M 269.09375 305.089844 C 268.199219 307.359375 267.753906 309.738281 266.972656 312.042969 C 266.824219 312.824219 266.265625 313.71875 266.710938 314.5 C 268.386719 314.796875 270.132812 314.683594 271.808594 314.609375 C 272.589844 314.609375 272.363281 313.644531 272.253906 313.160156 C 271.507812 310.632812 270.804688 308.066406 270.058594 305.535156 C 270.097656 305.128906 269.242188 304.382812 269.09375 305.089844 Z M 269.09375 305.089844 "/>
<path style=" stroke:none;fill-rule:nonzero;fill:rgb(100%,100%,100%);fill-opacity:1;" d="M 287.164062 298.246094 C 287.203125 297.765625 287.054688 296.910156 287.796875 296.984375 C 290.179688 296.910156 292.59375 296.910156 294.976562 297.019531 C 295.085938 300.257812 294.9375 303.453125 295.050781 306.691406 C 295.050781 307.320312 295.757812 307.359375 296.054688 306.914062 C 298.953125 303.863281 301.78125 300.703125 304.644531 297.578125 C 305.238281 296.761719 306.28125 296.984375 307.136719 296.945312 C 309.515625 297.019531 311.859375 296.835938 314.203125 297.058594 C 311.078125 300.40625 307.582031 303.378906 304.308594 306.578125 C 303.789062 307.0625 302.933594 307.769531 303.566406 308.511719 C 307.285156 313.679688 311.226562 318.738281 314.984375 323.871094 C 315.207031 324.167969 315.726562 324.949219 314.945312 324.910156 C 312.042969 324.949219 309.105469 325.058594 306.207031 324.835938 C 304.53125 322.976562 303.453125 320.636719 302.003906 318.589844 C 300.628906 316.65625 299.660156 314.460938 297.949219 312.824219 C 296.796875 313.976562 294.828125 314.90625 295.011719 316.804688 C 294.902344 319.519531 295.234375 322.269531 294.863281 324.984375 C 292.929688 325.285156 290.921875 325.023438 288.949219 325.136719 C 288.28125 325.097656 287.015625 325.285156 287.203125 324.28125 C 287.128906 315.578125 287.203125 306.914062 287.164062 298.246094 Z M 287.164062 298.246094 "/>
<path style=" stroke:none;fill-rule:nonzero;fill:rgb(100%,100%,100%);fill-opacity:1;" d="M 99.625 335.734375 C 104.980469 335.585938 110.300781 335.695312 115.65625 335.660156 C 117.367188 335.695312 119.113281 335.546875 120.824219 335.769531 C 122.644531 338.523438 123.949219 341.570312 125.621094 344.398438 C 125.84375 344.84375 126.289062 344.992188 126.773438 344.992188 C 191.109375 344.992188 255.480469 344.992188 319.816406 344.992188 C 320.375 345.03125 320.96875 344.769531 321.191406 344.25 C 322.679688 341.644531 324.019531 338.929688 325.507812 336.328125 C 325.839844 335.472656 326.882812 335.734375 327.625 335.695312 C 334.132812 335.734375 340.605469 335.621094 347.113281 335.769531 C 342.464844 344.734375 337.667969 353.65625 332.871094 362.621094 C 332.609375 363.253906 332.050781 363.699219 331.34375 363.585938 C 259.3125 363.585938 187.277344 363.585938 115.246094 363.585938 C 114.277344 363.734375 113.90625 362.769531 113.535156 362.101562 C 108.921875 353.324219 104.199219 344.546875 99.625 335.734375 Z M 99.625 335.734375 "/>
<path style=" stroke:none;fill-rule:nonzero;fill:rgb(100%,100%,100%);fill-opacity:1;" d="M 143.023438 372.625 C 143.023438 371.992188 142.949219 370.914062 143.917969 371.136719 C 149.347656 371.097656 154.8125 371.097656 160.28125 371.136719 C 161.136719 371.0625 160.914062 372.066406 160.988281 372.625 C 160.949219 379.800781 161.023438 387.015625 160.949219 394.191406 C 160.988281 394.863281 160.058594 394.714844 159.609375 394.75 C 154.105469 394.675781 148.601562 394.898438 143.097656 394.640625 C 142.988281 387.3125 143.097656 379.949219 143.023438 372.625 Z M 143.023438 372.625 "/>
<path style=" stroke:none;fill-rule:nonzero;fill:rgb(100%,100%,100%);fill-opacity:1;" d="M 285.902344 371.171875 C 291.257812 371.023438 296.613281 371.171875 301.964844 371.097656 C 302.597656 371.136719 303.789062 370.875 303.714844 371.878906 C 303.75 379.429688 303.75 387.015625 303.714844 394.566406 C 300.183594 394.972656 296.613281 394.640625 293.078125 394.75 C 290.660156 394.714844 288.28125 394.824219 285.902344 394.675781 C 285.789062 389.320312 285.863281 383.929688 285.863281 378.574219 C 285.828125 376.082031 285.679688 373.628906 285.902344 371.171875 Z M 285.902344 371.171875 "/>
</g>
</svg>
